<svg width="16" height="17" viewBox="0 0 16 17" fill="none" xmlns="http://www.w3.org/2000/svg">
    <path fill-rule="evenodd" clip-rule="evenodd" d="M8.0049 1.73077C4.45848 1.73077 1.58354 4.76146 1.58354 8.5C1.58354 12.2385 4.45848 15.2692 8.0049 15.2692C11.5513 15.2692 14.4263 12.2385 14.4263 8.5C14.4263 4.76146 11.5513 1.73077 8.0049 1.73077ZM0.416016 8.5C0.416016 4.08172 3.81368 0.5 8.0049 0.5C12.1961 0.5 15.5938 4.08172 15.5938 8.5C15.5938 12.9183 12.1961 16.5 8.0049 16.5C3.81368 16.5 0.416016 12.9183 0.416016 8.5Z" fill="#FF859B"/>
    <path fill-rule="evenodd" clip-rule="evenodd" d="M8.0049 3.57692C8.32731 3.57692 8.58867 3.85244 8.58867 4.19231V7.88462H12.0912C12.4136 7.88462 12.675 8.16013 12.675 8.5C12.675 8.83987 12.4136 9.11538 12.0912 9.11538H8.0049C7.6825 9.11538 7.42114 8.83987 7.42114 8.5V4.19231C7.42114 3.85244 7.6825 3.57692 8.0049 3.57692Z" fill="#FF859B"/>
</svg>
    